# xmcd CD database file
#
# Track frame offsets:
#	150
#	15870
#	36587
#	56445
#	71237
#	89825
#	107437
#	123790
#	142112
#	158757
#
# Disc length: 2439 seconds
#
# Revision: 0
# Processed by: cddbd v1.4PL0 Copyright (c) Steve Scherf et al.
# Submitted via: CDex 1.50beta9
#
DISCID=8509850a
DTITLE=Roberto Roena Y Su Apollo Sound 3 - Roberto Roena Y Su Apollo Sound 3
DYEAR=1900
DGENRE=Salsa
TTITLE0=Te Vas A Acordar De Mi
TTITLE1=Yo Soy Chambelon
TTITLE2=Que Engañada Estas
TTITLE3=Que Salga Pascual
TTITLE4=Soy El Terror
TTITLE5=Hagan Silencio
TTITLE6=El Traqueteo
TTITLE7=Se Pone Bueno
TTITLE8=Soy
TTITLE9=Ilumina Mi Camino
EXTD=
EXTT0=
EXTT1=
EXTT2=
EXTT3=
EXTT4=
EXTT5=
EXTT6=
EXTT7=
EXTT8=
EXTT9=
PLAYORDER=
